<svg width="17" height="16" viewBox="0 0 17 16" fill="none" xmlns="http://www.w3.org/2000/svg">
<path d="M15.2903 6.82382C15.9624 6.82382 16.4665 7.3279 16.4665 8C16.4665 8.33605 16.3405 8.6301 16.1304 8.84013C15.9204 9.05016 15.6264 9.17618 15.2903 9.17618L9.66146 9.17618L9.66146 14.805C9.66146 15.1411 9.53544 15.4351 9.32541 15.6452C9.11538 15.8552 8.82133 15.9812 8.48528 15.9812C7.81318 15.9812 7.3091 15.4771 7.3091 14.805L7.3091 9.17618L1.68025 9.17618C1.00815 9.17618 0.504076 8.6721 0.504076 8C0.504076 7.3279 1.00815 6.82382 1.68025 6.82382L7.3091 6.82382L7.3091 1.19497C7.3091 0.522871 7.81318 0.0187949 8.48528 0.018795C9.15738 0.0187944 9.66146 0.522871 9.66146 1.19497L9.66146 6.82382L15.2903 6.82382Z" fill="white"/>
</svg>
